HIERARCHY
ROOT Hips
{
	OFFSET 52.046600 -28.981413 86.755989
	CHANNELS 6 Xposition Yposition Zposition Xrotation Yrotation Zrotation
	JOINT spine
	{
		OFFSET 0.000000 -0.393702 6.846367
		CHANNELS 3 Xrotation Yrotation Zrotation
		JOINT spine1
		{
			OFFSET 0.000000 -0.000002 9.496208
			CHANNELS 3 Xrotation Yrotation Zrotation
			JOINT spine2
			{
				OFFSET 0.000000 -0.000002 9.099091
				CHANNELS 3 Xrotation Yrotation Zrotation
				JOINT Neck
				{
					OFFSET 0.000000 -1.113785 23.361214
					CHANNELS 3 Xrotation Yrotation Zrotation
					JOINT Head
					{
						OFFSET 0.000000 0.000000 7.058014
						CHANNELS 3 Xrotation Yrotation Zrotation
						End Site
						{
							OFFSET 0.000000 5.634186 17.084396
						}
					}
				}
				JOINT RightShoulder
				{
					OFFSET -3.831360 0.533491 9.826309
					CHANNELS 3 Xrotation Yrotation Zrotation
					JOINT RightArm
					{
						OFFSET 0.000000 -0.000004 12.888115
						CHANNELS 3 Xrotation Yrotation Zrotation
						JOINT RightArmRoll
						{
							OFFSET 0.000000 0.000000 6.506165
							CHANNELS 3 Xrotation Yrotation Zrotation
							JOINT RightForeArm
							{
								OFFSET 0.000000 -0.000004 18.950104
								CHANNELS 3 Xrotation Yrotation Zrotation
								JOINT RightForeArmRoll
								{
									OFFSET 0.000000 0.000000 7.300919
									CHANNELS 3 Xrotation Yrotation Zrotation
									JOINT RightHand
									{
										OFFSET 0.000000 -0.000004 14.651398
										CHANNELS 3 Xrotation Yrotation Zrotation
										End Site
										{
											OFFSET 0.000000 0.000000 0.100006
										}
									}
								}
							}
						}
					}
				}
				JOINT LeftShoulder
				{
					OFFSET 3.831360 0.533491 9.826309
					CHANNELS 3 Xrotation Yrotation Zrotation
					JOINT LeftArm
					{
						OFFSET 0.000000 -0.000004 12.888115
						CHANNELS 3 Xrotation Yrotation Zrotation
						JOINT LeftArmRoll
						{
							OFFSET 0.000000 0.000000 6.506165
							CHANNELS 3 Xrotation Yrotation Zrotation
							JOINT LeftForeArm
							{
								OFFSET 0.000000 -0.000004 18.950104
								CHANNELS 3 Xrotation Yrotation Zrotation
								JOINT LeftForeArmRoll
								{
									OFFSET 0.000000 0.000000 7.300919
									CHANNELS 3 Xrotation Yrotation Zrotation
									JOINT LeftHand
									{
										OFFSET 0.000000 -0.000004 14.651398
										CHANNELS 3 Xrotation Yrotation Zrotation
										End Site
										{
											OFFSET 0.000000 0.000000 0.100006
										}
									}
								}
							}
						}
					}
				}
			}
		}
	}
	JOINT RightUpLeg
	{
		OFFSET -6.068371 0.933477 -1.112778
		CHANNELS 3 Xrotation Yrotation Zrotation
		JOINT RightUpLegRoll
		{
			OFFSET 0.000000 -0.000004 17.179596
			CHANNELS 3 Xrotation Yrotation Zrotation
			JOINT RightLeg
			{
				OFFSET 0.000000 0.000004 -21.274300
				CHANNELS 3 Xrotation Yrotation Zrotation
				JOINT RightLegRoll
				{
					OFFSET 0.000000 -0.000004 21.343903
					CHANNELS 3 Xrotation Yrotation Zrotation
					JOINT RightFoot
					{
						OFFSET 0.000000 -0.000002 17.765198
						CHANNELS 3 Xrotation Yrotation Zrotation
						JOINT RightToeBase
						{
							OFFSET 0.000000 -0.000004 14.850815
							CHANNELS 3 Xrotation Yrotation Zrotation
							End Site
							{
								OFFSET 0.006294 0.829004 7.192123
							}
						}
					}
				}
			}
		}
	}
	JOINT LeftUpLeg
	{
		OFFSET 6.068371 0.933477 -1.112778
		CHANNELS 3 Xrotation Yrotation Zrotation
		JOINT LeftUpLegRoll
		{
			OFFSET 0.000000 -0.000004 17.179703
			CHANNELS 3 Xrotation Yrotation Zrotation
			JOINT LeftLeg
			{
				OFFSET 0.000000 -0.000004 21.274200
				CHANNELS 3 Xrotation Yrotation Zrotation
				JOINT LeftLegRoll
				{
					OFFSET 0.000000 -0.000002 21.541206
					CHANNELS 3 Xrotation Yrotation Zrotation
					JOINT LeftFoot
					{
						OFFSET 0.000000 -0.000004 17.567902
						CHANNELS 3 Xrotation Yrotation Zrotation
						JOINT LeftToeBase
						{
							OFFSET 0.000000 -0.000002 14.850800
							CHANNELS 3 Xrotation Yrotation Zrotation
							End Site
							{
								OFFSET -0.028210 0.829002 7.192123
							}
						}
					}
				}
			}
		}
	}
}
MOTION
Frames: 5
Frame Time: 0.041667
52.777901 3.540689 52.625412 -20.809139 -1.156931 -7.854765 -0.228675 -0.434739 4.285025 3.601713 -0.842283 8.556874 5.239229 -0.740106 8.566274 26.532334 4.007585 -9.481382 0.968676 -3.676905 -9.013123 -26.365597 -59.007999 -31.184882 115.425047 -33.942820 51.733799 -0.000005 -0.000005 -0.000000 68.852419 6.790518 2.449726 0.000001 0.000008 -2.999991 -5.000137 -8.000359 -0.000074 13.286707 71.173856 -13.151227 120.657587 17.862816 -115.621155 -0.000002 -0.000002 0.000010 29.058244 26.545163 -5.315863 0.000008 -0.000008 3.000000 -5.000328 8.000079 -0.000157 -66.956870 -173.134490 0.716209 179.999991 0.000004 -1.617002 88.525139 3.434140 2.671711 0.000002 0.000002 2.100230 69.227744 7.244940 1.181196 25.456863 -7.355612 -0.000005 -63.294550 165.514062 -8.205099 -0.000004 -0.000003 -0.810437 -95.092004 -2.993821 1.595857 -0.000003 0.000003 -2.223869 74.557170 -6.629989 -2.460819 25.462703 7.348910 -0.007308 
52.774799 3.541132 52.627625 -20.805620 -1.153957 -7.853872 -0.225133 -0.435369 4.281440 3.607414 -0.843648 8.550785 5.244932 -0.741550 8.560200 26.569902 4.034798 -9.477047 0.948714 -3.688776 -9.005197 -26.343847 -59.014125 -31.158818 115.382495 -33.885006 51.779357 -0.000004 -0.000007 0.000001 68.709381 6.664880 2.544218 0.000002 0.000008 -2.999989 -5.000139 -8.000360 -0.000076 13.234239 71.174983 -13.093814 120.601347 17.863518 -115.587769 -0.000001 -0.000002 0.000009 28.916907 26.572571 -5.302382 0.000007 -0.000007 3.000000 -5.000329 8.000079 -0.000156 -66.959131 -173.137236 0.717106 179.999991 0.000005 -1.617001 88.529435 3.433370 2.669770 0.000002 0.000001 2.100231 69.224275 7.245374 1.181703 25.456860 -7.355612 -0.000004 -63.298662 165.514349 -8.198471 -0.000005 -0.000004 -0.810437 -95.091669 -2.997560 1.592692 -0.000003 0.000003 -2.223780 74.556146 -6.628348 -2.467458 25.462704 7.348910 -0.007306 
52.772800 3.544390 52.629929 -20.802292 -1.150841 -7.852993 -0.221754 -0.435983 4.278043 3.612736 -0.845019 8.545100 5.250263 -0.742995 8.554523 26.609179 4.059139 -9.472687 0.926944 -3.698246 -8.997536 -26.324497 -59.022909 -31.135462 115.336159 -33.830576 51.818897 -0.000006 -0.000009 0.000001 68.572080 6.540966 2.635878 0.000003 0.000009 -2.999991 -5.000139 -8.000359 -0.000076 13.186888 71.173160 -13.042449 120.546255 17.864703 -115.556719 -0.000001 -0.000001 0.000010 28.776635 26.599316 -5.288478 0.000008 -0.000007 3.000001 -5.000328 8.000076 -0.000157 -66.960873 -173.140665 0.719188 179.999991 0.000005 -1.617002 88.533684 3.432575 2.668035 0.000002 0.000002 2.100230 69.221010 7.245785 1.182192 25.456861 -7.355610 -0.000005 -63.302405 165.514472 -8.192044 -0.000005 -0.000005 -0.810437 -95.091635 -3.001358 1.590517 -0.000003 0.000003 -2.223741 74.555695 -6.626752 -2.473867 25.462704 7.348915 -0.007307 
52.773605 3.544355 52.629929 -20.798964 -1.147641 -7.852142 -0.218494 -0.436590 4.274775 3.617786 -0.846393 8.539681 5.255338 -0.744441 8.549122 26.649704 4.081453 -9.468299 0.903910 -3.706029 -8.990051 -26.306856 -59.033516 -31.114039 115.287665 -33.778082 51.855370 -0.000005 -0.000007 0.000003 68.438700 6.418282 2.725138 0.000003 0.000009 -2.999988 -5.000141 -8.000359 -0.000077 13.143143 71.169342 -12.995342 120.492364 17.865765 -115.528333 -0.000003 -0.000000 0.000010 28.637107 26.625544 -5.274251 0.000008 -0.000008 3.000000 -5.000327 8.000079 -0.000158 -66.962635 -173.143697 0.720058 179.999991 0.000005 -1.617001 88.537871 3.431863 2.666206 0.000002 0.000002 2.100230 69.217841 7.246160 1.182868 25.456860 -7.355613 -0.000005 -63.305875 165.514472 -8.185779 -0.000005 -0.000004 -0.810437 -95.092004 -3.005279 1.587327 -0.000002 0.000003 -2.223721 74.555674 -6.625135 -2.480447 25.462703 7.348911 -0.007308 
52.774300 3.547667 52.627632 -20.795839 -1.144383 -7.851293 -0.215282 -0.437189 4.271576 3.622698 -0.847770 8.534431 5.260247 -0.745886 8.543887 26.690994 4.102623 -9.463927 0.880149 -3.712861 -8.982669 -26.290098 -59.045210 -31.093606 115.238173 -33.726583 51.890511 -0.000006 -0.000006 0.000002 68.307745 6.296143 2.812878 0.000000 0.000008 -2.999989 -5.000142 -8.000359 -0.000077 13.101501 71.164444 -12.950709 120.438693 17.867498 -115.499961 -0.000004 -0.000000 0.000010 28.497950 26.651530 -5.259770 0.000008 -0.000011 3.000000 -5.000328 8.000076 -0.000158 -66.964274 -173.147112 0.721664 179.999991 0.000004 -1.617002 88.542092 3.431044 2.664266 0.000002 0.000001 2.100232 69.214692 7.246569 1.183450 25.456860 -7.355609 -0.000007 -63.309160 165.514362 -8.179656 -0.000005 -0.000004 -0.810437 -95.092448 -3.009245 1.585158 -0.000003 0.000003 -2.223711 74.555866 -6.623523 -2.486917 25.462704 7.348913 -0.007308 
